<svg width="20" height="20" viewBox="0 0 20 20" fill="none" xmlns="http://www.w3.org/2000/svg">
<path d="M10.0057 0.000488281C4.75483 0.000488281 0.449004 4.05049 0.0415039 9.19799L5.4015 11.413C5.85566 11.1038 6.404 10.9213 6.99483 10.9213C7.04733 10.9213 7.099 10.9247 7.1515 10.9263L9.53568 7.47466V7.42549C9.53568 5.34632 11.2257 3.65549 13.3057 3.65549C15.384 3.65549 17.0757 5.34799 17.0757 7.42799C17.0757 9.50799 15.384 11.1988 13.3057 11.1988H13.2182L9.82148 13.6247C9.82148 13.668 9.82478 13.7122 9.82478 13.7572C9.82478 15.3197 8.56228 16.5872 6.99983 16.5872C5.63733 16.5872 4.4865 15.6097 4.224 14.3147L0.386504 12.7255C1.57483 16.923 5.42816 20.0005 10.0057 20.0005C15.5282 20.0005 20.0048 15.523 20.0048 10.0005C20.0048 4.47799 15.5273 0.000488281 10.0057 0.000488281ZM5.079 14.6672C5.29733 15.1197 5.674 15.4997 6.174 15.7088C7.25483 16.158 8.50148 15.6455 8.95068 14.563C9.16978 14.038 9.17068 13.4638 8.95478 12.9388C8.73898 12.4138 8.32978 12.0047 7.80733 11.7863C7.28733 11.5697 6.73233 11.5788 6.24233 11.7613L7.5115 12.2863C8.30818 12.6197 8.68568 13.5363 8.35228 14.3322C8.02148 15.1297 7.10483 15.5072 6.30733 15.1755L5.079 14.6672ZM15.819 7.42299C15.819 6.03799 14.6915 4.91049 13.3065 4.91049C11.919 4.91049 10.794 6.03799 10.794 7.42299C10.794 8.81049 11.919 9.93549 13.3065 9.93549C14.6923 9.93549 15.819 8.81049 15.819 7.42299ZM13.3123 5.53049C14.3532 5.53049 15.2007 6.37549 15.2007 7.41882C15.2007 8.46129 14.3532 9.30629 13.3123 9.30629C12.2682 9.30629 11.4248 8.46129 11.4248 7.41882C11.4248 6.37549 12.269 5.53049 13.3123 5.53049Z" fill="#0D0D0D"/>
</svg>
