<svg width="20" height="20" viewBox="0 0 20 20" fill="none" xmlns="http://www.w3.org/2000/svg">
<path d="M19.9995 10.0005C19.9995 15.5233 15.5223 20.0005 9.99951 20.0005C4.47666 20.0005 -0.000488281 15.5233 -0.000488281 10.0005C-0.000488281 4.47764 4.47666 0.000488281 9.99951 0.000488281C15.5223 0.000488281 19.9995 4.47764 19.9995 10.0005ZM10.3579 7.38295C9.38521 7.78751 7.44131 8.62489 4.52611 9.89499C4.05272 10.0832 3.80475 10.2674 3.78217 10.4474C3.74402 10.7518 4.12512 10.8716 4.64409 11.0348C4.71468 11.057 4.78783 11.08 4.86281 11.1044C5.37339 11.2703 6.06022 11.4645 6.41727 11.4722C6.74115 11.4792 7.10264 11.3457 7.50173 11.0716C10.2255 9.23299 11.6315 8.30369 11.7198 8.28369C11.7821 8.26949 11.8684 8.25179 11.9268 8.30369C11.9853 8.35569 11.9795 8.45409 11.9734 8.48049C11.9356 8.64149 10.4396 10.0323 9.66551 10.752C9.43461 10.9666 9.20961 11.1858 8.98281 11.4044C8.50851 11.8616 8.15281 12.2045 9.00251 12.7645C9.86391 13.3322 10.7318 13.8987 11.5719 14.4976C11.9862 14.793 12.3585 15.0584 12.8183 15.0161C13.0856 14.9915 13.3616 14.7402 13.5017 13.9908C13.833 12.2198 14.4842 8.38259 14.6347 6.80132C14.6479 6.66279 14.6313 6.48549 14.618 6.40766C14.6047 6.32983 14.5768 6.21893 14.4757 6.13684C14.3558 6.03962 14.1709 6.01912 14.0882 6.02058C13.712 6.02721 13.135 6.22786 10.3579 7.38295Z" fill="#0D0D0D"/>
</svg>
